<svg width="24" height="24" viewBox="0 0 24 24" fill="none" xmlns="http://www.w3.org/2000/svg">
<path d="M18.3445 12.5H5.65545C5.29273 12.5 5 12.2073 5 11.8445C5 11.4818 5.29273 11.1891 5.65545 11.1891H18.3445C18.7073 11.1891 19 11.4818 19 11.8445C19 12.2073 18.7073 12.5 18.3445 12.5Z" fill="currentColor"/>
<path d="M18.1982 10.75H6.01816C6.34907 7.67637 8.94543 5.28365 12.1082 5.28365C15.2709 5.28365 17.8736 7.67637 18.1982 10.75Z" fill="currentColor"/>
<path d="M12 2C11.2745 2 10.6891 2.58545 10.6891 3.31091C10.6891 4.03636 11.2745 4.62818 12 4.62818C12.7255 4.62818 13.3109 4.04273 13.3109 3.31727C13.3109 2.59182 12.7255 2 12 2ZM12 3.96636C11.6373 3.96636 11.3445 3.67364 11.3445 3.31091C11.3445 2.94818 11.6373 2.65545 12 2.65545C12.3627 2.65545 12.6555 2.94818 12.6555 3.31091C12.6555 3.67364 12.3627 3.96636 12 3.96636Z" fill="currentColor"/>
<path d="M6.25993 21.3884H6C5.05719 21.3884 4.58579 21.3884 4.29289 21.0955C4 20.8026 4 20.3312 4 19.3884V18.2764C4 17.7579 4 17.4987 4.13318 17.2672C4.26636 17.0356 4.46727 16.9188 4.8691 16.6851C7.51457 15.1464 11.2715 14.2803 13.7791 15.7759C13.9475 15.8764 14.0991 15.9977 14.2285 16.1431C14.7866 16.77 14.746 17.7161 14.1028 18.2775C13.9669 18.396 13.8222 18.486 13.6764 18.5172C13.7962 18.5033 13.911 18.4874 14.0206 18.4699C14.932 18.3245 15.697 17.8375 16.3974 17.3084L18.2046 15.9433C18.8417 15.462 19.7873 15.4619 20.4245 15.943C20.9982 16.3762 21.1736 17.0894 20.8109 17.6707C20.388 18.3487 19.7921 19.216 19.2199 19.7459C18.6469 20.2766 17.7939 20.7504 17.0975 21.0865C16.326 21.4589 15.4738 21.6734 14.6069 21.8138C12.8488 22.0983 11.0166 22.0549 9.27633 21.6964C8.29253 21.4937 7.27079 21.3884 6.25993 21.3884Z" fill="currentColor"/>
</svg>
