<svg width="56" height="41" viewBox="0 0 56 41" fill="none" xmlns="http://www.w3.org/2000/svg">
<path d="M29.9157 18.7905C27.437 16.3118 24.7682 14.3157 22.1652 12.8972C22.9256 14.1768 23.8542 15.5075 24.9437 16.8529C26.1575 17.84 27.3785 18.9368 28.5777 20.1359C35.8163 27.3746 39.5453 35.4322 36.0138 38.9638C35.2095 39.7681 34.0249 39.9582 33.0305 39.5487C33.44 39.1246 33.44 38.4519 33.0232 38.0352C32.5991 37.6111 31.9118 37.6111 31.4951 38.0352C31.071 38.4592 31.071 39.1466 31.4951 39.5633C31.5024 39.5706 31.517 39.5779 31.5243 39.5853C31.5316 39.5926 31.5316 39.5926 31.5316 39.5999C32.9428 41.0111 35.2387 41.0111 36.6499 39.5999C40.5251 35.71 37.5127 26.3802 29.9157 18.7905Z" fill="white"/>
<path d="M14.2246 15.6465C13.8005 15.2224 13.1132 15.2224 12.6964 15.6465C12.287 16.0559 12.2797 16.7213 12.6745 17.1454C11.6947 17.5329 10.5322 17.3355 9.74248 16.5385C8.68227 15.4783 8.68227 13.7527 9.74248 12.6852C11.5046 10.923 14.4001 10.9669 17.7562 12.3635C17.5588 11.8516 17.3833 11.3544 17.2371 10.8572C13.8444 9.95058 10.8977 10.2723 9.10635 12.0564C7.69518 13.4675 7.69518 15.7634 9.10635 17.1746C10.5175 18.5858 12.8134 18.5858 14.2246 17.1746C14.6487 16.7579 14.6487 16.0705 14.2246 15.6465Z" fill="white"/>
<path d="M41.7754 25.766C42.1995 26.1901 42.8868 26.1901 43.3036 25.766C43.7131 25.3565 43.7204 24.6911 43.3255 24.2671C44.3053 23.8795 45.4679 24.0769 46.2576 24.8739C47.3178 25.9341 47.3178 27.6597 46.2576 28.7272C44.4954 30.4894 41.5999 30.4455 38.2438 29.049C38.4413 29.5608 38.6167 30.058 38.763 30.5552C42.1556 31.4619 45.1023 31.1401 46.8937 29.3561C48.3049 27.9449 48.3049 25.649 46.8937 24.2378C45.4825 22.8266 43.1866 22.8266 41.7754 24.2378C41.3513 24.6546 41.3513 25.3419 41.7754 25.766Z" fill="white"/>
<path d="M31.0564 24.5595C29.8426 23.5724 28.6215 22.4757 27.4224 21.2765C20.1837 14.0379 16.4547 5.98028 19.9863 2.44869C20.7906 1.64439 21.9751 1.45428 22.9695 1.86374C22.5601 2.28783 22.5601 2.96051 22.9768 3.37728C23.4009 3.80137 24.0882 3.80137 24.505 3.37728C24.9291 2.9532 24.9291 2.26589 24.505 1.84912C24.4977 1.84181 24.4831 1.8345 24.4758 1.82719C24.4684 1.81987 24.4684 1.81987 24.4684 1.81256C23.0573 0.401387 20.7614 0.401387 19.3502 1.81256C15.4676 5.69512 18.4874 15.0323 26.077 22.6219C28.5557 25.1006 31.2245 27.0967 33.8275 28.5152C33.0744 27.243 32.1458 25.9122 31.0564 24.5595Z" fill="white"/>
<path d="M26.0843 18.7905C23.6056 21.2692 21.6095 23.938 20.191 26.541C21.4706 25.7806 22.8013 24.852 24.1467 23.7625C25.1338 22.5488 26.2306 21.3277 27.4297 20.1286C34.6684 12.8899 42.726 9.1609 46.2576 12.6925C47.0619 13.4968 47.252 14.6813 46.8425 15.6757C46.4184 15.2662 45.7457 15.2662 45.329 15.683C44.9049 16.1071 44.9049 16.7944 45.329 17.2112C45.753 17.6353 46.4404 17.6353 46.8571 17.2112C46.8644 17.2039 46.8718 17.1892 46.8791 17.1819C46.8864 17.1746 46.8864 17.1746 46.8937 17.1746C48.3049 15.7634 48.3049 13.4675 46.8937 12.0564C43.0038 8.18112 33.674 11.2009 26.0843 18.7905Z" fill="white"/>
<path d="M22.9403 34.4816C22.5162 34.9057 22.5162 35.593 22.9403 36.0098C23.3497 36.4192 24.0151 36.4266 24.4392 36.0317C24.8267 37.0115 24.6293 38.1741 23.8323 38.9637C22.7721 40.024 21.0465 40.024 19.979 38.9637C18.2169 37.2016 18.2607 34.3061 19.6573 30.95C19.1455 31.1474 18.6483 31.3229 18.1511 31.4692C17.2444 34.8618 17.5661 37.8085 19.3502 39.5999C20.7614 41.011 23.0573 41.011 24.4684 39.5999C25.8796 38.1887 25.8796 35.8928 24.4684 34.4816C24.0517 34.0575 23.3644 34.0575 22.9403 34.4816Z" fill="white"/>
<path d="M33.0598 6.93081C33.4838 6.50673 33.4838 5.81942 33.0598 5.40265C32.6503 4.99319 31.9849 4.98588 31.5608 5.38071C31.1733 4.40093 31.3707 3.23836 32.1677 2.44869C33.2279 1.38848 34.9535 1.38848 36.021 2.44869C37.7832 4.21083 37.7393 7.1063 36.3427 10.4624C36.8546 10.265 37.3518 10.0895 37.849 9.94327C38.7556 6.5506 38.4339 3.60395 36.6498 1.81256C35.2387 0.401387 32.9428 0.401387 31.5316 1.81256C30.1204 3.22374 30.1204 5.51964 31.5316 6.93081C31.9484 7.3549 32.6357 7.3549 33.0598 6.93081Z" fill="white"/>
<path d="M31.8533 17.6499C30.8662 18.8636 29.7695 20.0847 28.5703 21.2838C21.3317 28.5225 13.2741 32.2515 9.74248 28.7199C8.93818 27.9156 8.74808 26.7311 9.15754 25.7367C9.58162 26.1462 10.2543 26.1462 10.6711 25.7294C11.0952 25.3053 11.0952 24.618 10.6711 24.2013C10.247 23.7772 9.55969 23.7772 9.14291 24.2013C9.1356 24.2086 9.12829 24.2232 9.12098 24.2305C9.11367 24.2378 9.11367 24.2378 9.10635 24.2378C7.69518 25.649 7.69518 27.9449 9.10635 29.3561C12.9889 33.2386 22.3261 30.2189 29.9157 22.6292C32.3944 20.1505 34.3905 17.4817 35.809 14.8787C34.5368 15.6318 33.206 16.5604 31.8533 17.6499Z" fill="white"/>
</svg>
