<svg width="240" height="68" viewBox="0 0 240 68" fill="none" xmlns="http://www.w3.org/2000/svg">
<path d="M37.8872 30.6525C33.6734 26.4387 29.1364 23.0453 24.7113 20.6339C26.004 22.8091 27.5827 25.0714 29.4347 27.3585C31.4981 29.0366 33.5739 30.9011 35.6125 32.9396C47.9182 45.2453 54.2575 58.9432 48.2538 64.9469C46.8865 66.3143 44.8728 66.6374 43.1824 65.9413C43.8784 65.2204 43.8784 64.0768 43.1699 63.3683C42.449 62.6474 41.2806 62.6474 40.5721 63.3683C39.8511 64.0893 39.8511 65.2577 40.5721 65.9662C40.5845 65.9786 40.6093 65.9911 40.6218 66.0035C40.6342 66.0159 40.6342 66.0159 40.6342 66.0284C43.0332 68.4274 46.9362 68.4274 49.3352 66.0284C55.9231 59.4156 50.802 43.5549 37.8872 30.6525Z" fill="#405F2D"/>
<path d="M11.2123 25.3076C10.4914 24.5866 9.32293 24.5866 8.61442 25.3076C7.91833 26.0036 7.90591 27.1348 8.57713 27.8557C6.9115 28.5145 4.93513 28.1789 3.59268 26.824C1.79033 25.0217 1.79033 22.0882 3.59268 20.2734C6.58832 17.2778 11.5106 17.3523 17.216 19.7265C16.8804 18.8564 16.5821 18.0111 16.3335 17.1659C10.5659 15.6246 5.55663 16.1715 2.51127 19.2044C0.112272 21.6034 0.112272 25.5064 2.51127 27.9054C4.91027 30.3044 8.8133 30.3044 11.2123 27.9054C11.9332 27.1969 11.9332 26.0285 11.2123 25.3076Z" fill="#405F2D"/>
<path d="M58.0487 42.5107C58.7696 43.2317 59.938 43.2317 60.6466 42.5107C61.3426 41.8146 61.3551 40.6835 60.6838 39.9626C62.3495 39.3038 64.3258 39.6394 65.6683 40.9943C67.4706 42.7966 67.4706 45.7301 65.6683 47.5449C62.6726 50.5405 57.7504 50.466 52.045 48.0918C52.3806 48.9619 52.6789 49.8072 52.9275 50.6524C58.695 52.1937 63.7043 51.6468 66.7497 48.6139C69.1487 46.2149 69.1487 42.3119 66.7497 39.9129C64.3507 37.5139 60.4477 37.5139 58.0487 39.9129C57.3277 40.6214 57.3277 41.7898 58.0487 42.5107Z" fill="#405F2D"/>
<path d="M39.8262 40.4598C37.7629 38.7817 35.687 36.9172 33.6485 34.8787C21.3428 22.5729 15.0035 8.87505 21.0072 2.87134C22.3745 1.50403 24.3881 1.18085 26.0786 1.87694C25.3825 2.59788 25.3825 3.74144 26.091 4.44995C26.812 5.1709 27.9804 5.1709 28.6889 4.44995C29.4099 3.72901 29.4099 2.56059 28.6889 1.85208C28.6765 1.83965 28.6516 1.82722 28.6392 1.81479C28.6268 1.80236 28.6268 1.80236 28.6268 1.78993C26.2278 -0.609072 22.3247 -0.609072 19.9257 1.78993C13.3254 8.39027 18.459 24.2634 31.3614 37.1658C35.5752 41.3796 40.1121 44.773 44.5372 47.1844C43.2569 45.0216 41.6783 42.7593 39.8262 40.4598Z" fill="#405F2D"/>
<path d="M31.3738 30.6525C27.1601 34.8663 23.7667 39.4032 21.3552 43.8283C23.5305 42.5356 25.7927 40.957 28.0799 39.1049C29.7579 37.0415 31.6224 34.9657 33.661 32.9272C45.9667 20.6214 59.6646 14.2821 65.6683 20.2858C67.0356 21.6531 67.3588 23.6668 66.6627 25.3573C65.9418 24.6612 64.7982 24.6612 64.0897 25.3697C63.3688 26.0907 63.3688 27.2591 64.0897 27.9676C64.8106 28.6885 65.9791 28.6885 66.6876 27.9676C66.7 27.9552 66.7124 27.9303 66.7249 27.9179C66.7373 27.9054 66.7373 27.9054 66.7497 27.9054C69.1487 25.5064 69.1487 21.6034 66.7497 19.2044C60.1369 12.6165 44.2762 17.7501 31.3738 30.6525Z" fill="#405F2D"/>
<path d="M26.0289 57.3273C25.308 58.0483 25.308 59.2167 26.0289 59.9252C26.725 60.6213 27.8561 60.6337 28.5771 59.9625C29.2359 61.6281 28.9002 63.6045 27.5454 64.9469C25.743 66.7493 22.8095 66.7493 20.9947 64.9469C17.9991 61.9513 18.0737 57.029 20.4478 51.3236C19.5777 51.6592 18.7325 51.9576 17.8872 52.2062C16.3459 57.9737 16.8928 62.983 19.9258 66.0284C22.3248 68.4274 26.2278 68.4274 28.6268 66.0284C31.0258 63.6294 31.0258 59.7263 28.6268 57.3273C27.9183 56.6064 26.7499 56.6064 26.0289 57.3273Z" fill="#405F2D"/>
<path d="M43.2321 10.491C43.953 9.77001 43.953 8.60159 43.2321 7.89307C42.536 7.19699 41.4049 7.18456 40.6839 7.85578C40.0251 6.19016 40.3607 4.21378 41.7156 2.87134C43.518 1.06898 46.4515 1.06898 48.2663 2.87134C51.2619 5.86698 51.1873 10.7893 48.8132 16.4947C49.6833 16.1591 50.5285 15.8607 51.3738 15.6121C52.9151 9.84459 52.3682 4.83528 49.3352 1.78993C46.9362 -0.609072 43.0332 -0.609072 40.6342 1.78993C38.2352 4.18892 38.2352 8.09195 40.6342 10.491C41.3427 11.2119 42.5111 11.2119 43.2321 10.491Z" fill="#405F2D"/>
<path d="M41.1811 28.7134C39.5031 30.7768 37.6386 32.8526 35.6 34.8911C23.2943 47.1969 9.59639 53.5362 3.59268 47.5325C2.22538 46.1652 1.9022 44.1515 2.59828 42.461C3.31922 43.1571 4.46278 43.1571 5.1713 42.4486C5.89224 41.7276 5.89224 40.5592 5.1713 39.8507C4.45035 39.1298 3.28193 39.1298 2.57342 39.8507C2.56099 39.8631 2.54856 39.888 2.53613 39.9004C2.5237 39.9129 2.5237 39.9129 2.51127 39.9129C0.112272 42.3119 0.112272 46.2149 2.51127 48.6139C9.11162 55.2142 24.9848 50.0806 37.8872 37.1782C42.1009 32.9645 45.4943 28.4275 47.9058 24.0024C45.7429 25.2827 43.4807 26.8613 41.1811 28.7134Z" fill="#405F2D"/>
<path d="M87.57 50.7643V50.0185L90.9759 48.2907L100.858 35.4256L91.212 22.3741L88.2785 20.7457V19.9999H99.9255V20.7457L96.1965 22.4735V22.7097L103.654 32.5418L111.386 22.66V22.4735L107.843 20.7457V19.9999H117.626V20.7457L114.692 22.4735L105.233 34.6425L115.538 48.2037L118.794 50.0185V50.7643H106.911V50.0185L110.317 48.3404V48.154L102.399 37.4766L94.2947 48.154V48.3404L98.0734 50.0185V50.7643H87.57Z" fill="#405F2D"/>
<path d="M132.965 50.7643V50.0185L136.694 48.154V22.6102L132.965 20.7457V19.9999H144.611V20.7457L140.882 22.6102V33.6108H156.731V22.6102L153.002 20.7457V19.9999H164.649V20.7457L160.92 22.6102V48.154L164.649 50.0185V50.7643H153.002V50.0185L156.731 48.154V36.1714H140.882V48.154L144.611 50.0185V50.7643H132.965Z" fill="#405F2D"/>
<path d="M179.192 51.2366C177.141 51.2366 175.351 50.7518 173.81 49.7947C172.268 48.8376 171.075 47.5325 170.217 45.8793C169.36 44.2385 168.937 42.374 168.937 40.2858C168.937 38.2099 169.36 36.3454 170.217 34.6922C171.075 33.0515 172.268 31.7463 173.81 30.7768C175.351 29.8197 177.141 29.3349 179.192 29.3349C181.243 29.3349 183.033 29.8197 184.574 30.7768C186.115 31.7463 187.309 33.0515 188.166 34.6922C189.024 36.3454 189.447 38.2099 189.447 40.2858C189.447 42.374 189.024 44.2385 188.166 45.8793C187.309 47.5325 186.115 48.8376 184.574 49.7947C183.045 50.7518 181.243 51.2366 179.192 51.2366ZM179.851 49.2229C181.094 49.2229 182.113 48.8376 182.921 48.0545C183.729 47.2839 184.325 46.277 184.686 45.0465C185.059 43.8159 185.245 42.5356 185.245 41.2056C185.245 39.5648 185.022 37.9738 184.574 36.4573C184.127 34.9408 183.406 33.6978 182.436 32.7283C181.454 31.7712 180.186 31.2864 178.633 31.2864C177.352 31.2864 176.321 31.6717 175.513 32.4548C174.705 33.2379 174.108 34.2199 173.723 35.438C173.337 36.6438 173.138 37.9365 173.138 39.3038C173.138 40.957 173.375 42.5356 173.835 44.0521C174.307 45.5809 175.028 46.8239 176.022 47.7811C177.017 48.7506 178.297 49.2229 179.851 49.2229Z" fill="#405F2D"/>
<path d="M200.41 51.2366C199.043 51.2366 197.862 50.8264 196.867 50.0185C195.873 49.2105 195.376 48.0794 195.376 46.6126V31.9825H191.56V31.6966L195.525 29.7824L198.831 24.6612H199.117V29.7824H205.27V31.9701H199.117V45.8171C199.117 46.6251 199.478 47.2217 200.186 47.5822C200.895 47.9551 201.74 48.1415 202.697 48.1415C203.281 48.1415 203.841 48.1167 204.35 48.0421C204.86 47.9799 205.307 47.9054 205.68 47.8059H205.817V48.2783C205.506 48.9992 204.897 49.658 203.977 50.2795C203.058 50.9259 201.864 51.2366 200.41 51.2366Z" fill="#405F2D"/>
<path d="M218.21 51.2366C215.202 51.2366 212.815 50.3168 211.075 48.4896C209.335 46.6624 208.465 44.2385 208.465 41.218C208.465 38.8936 208.925 36.8302 209.844 35.0403C210.764 33.2504 211.97 31.8582 213.474 30.8514C214.978 29.8445 216.619 29.3349 218.396 29.3349C220.845 29.3349 222.784 30.1926 224.201 31.8955C225.618 33.6108 226.327 36.0595 226.327 39.2541L226.09 39.4902H212.156C212.181 40.9197 212.467 42.2621 213.002 43.5176C213.524 44.773 214.381 45.7923 215.537 46.5754C216.706 47.3584 218.259 47.7438 220.223 47.7438C221.926 47.7438 223.94 47.1223 226.24 45.8793H226.376V46.3392C225.655 47.6816 224.599 48.8252 223.182 49.7823C221.765 50.7518 220.099 51.2366 218.21 51.2366ZM217.65 31.3734C216.159 31.3734 214.941 31.8955 213.996 32.9396C213.051 33.9837 212.467 35.4505 212.243 37.3398H222.772C222.424 35.2267 221.827 33.7103 220.982 32.778C220.124 31.8458 219.018 31.3734 217.65 31.3734Z" fill="#405F2D"/>
<path d="M229.67 50.7643V50.0185L232.604 48.5269V21.1186L229.807 18.6948V18.3716L236.047 15.811H236.32V48.5269L239.254 50.0185V50.7643H229.67Z" fill="#405F2D"/>
</svg>
