<svg width="141" height="41" viewBox="0 0 141 41" fill="none" xmlns="http://www.w3.org/2000/svg">
<path d="M21.8623 18.7905C19.3836 16.3118 16.7148 14.3157 14.1118 12.8972C14.8722 14.1768 15.8008 15.5075 16.8902 16.8529C18.104 17.84 19.3251 18.9368 20.5242 20.1359C27.7629 27.3746 31.4919 35.4322 27.9603 38.9638C27.156 39.7681 25.9715 39.9582 24.9771 39.5487C25.3865 39.1246 25.3865 38.4519 24.9698 38.0352C24.5457 37.6111 23.8584 37.6111 23.4416 38.0352C23.0175 38.4592 23.0175 39.1466 23.4416 39.5633C23.4489 39.5706 23.4635 39.5779 23.4708 39.5853C23.4782 39.5926 23.4782 39.5926 23.4782 39.5999C24.8893 41.0111 27.1852 41.0111 28.5964 39.5999C32.4717 35.71 29.4592 26.3802 21.8623 18.7905Z" fill="white"/>
<path d="M6.17114 15.6465C5.74706 15.2224 5.05975 15.2224 4.64298 15.6465C4.23352 16.0559 4.2262 16.7213 4.62104 17.1454C3.64126 17.5329 2.47869 17.3355 1.68901 16.5385C0.628804 15.4783 0.628804 13.7527 1.68901 12.6852C3.45115 10.923 6.34662 10.9669 9.70273 12.3635C9.50531 11.8516 9.32983 11.3544 9.1836 10.8572C5.79093 9.95058 2.84428 10.2723 1.05289 12.0564C-0.358287 13.4675 -0.358287 15.7634 1.05289 17.1746C2.46406 18.5858 4.75996 18.5858 6.17114 17.1746C6.59522 16.7579 6.59522 16.0705 6.17114 15.6465Z" fill="white"/>
<path d="M33.7219 25.766C34.146 26.1901 34.8333 26.1901 35.2501 25.766C35.6596 25.3565 35.6669 24.6911 35.272 24.2671C36.2518 23.8795 37.4144 24.0769 38.2041 24.8739C39.2643 25.9341 39.2643 27.6597 38.2041 28.7272C36.4419 30.4894 33.5464 30.4455 30.1903 29.049C30.3878 29.5608 30.5632 30.058 30.7095 30.5552C34.1021 31.4619 37.0488 31.1401 38.8402 29.3561C40.2514 27.9449 40.2514 25.649 38.8402 24.2378C37.429 22.8266 35.1331 22.8266 33.7219 24.2378C33.2978 24.6546 33.2978 25.3419 33.7219 25.766Z" fill="white"/>
<path d="M23.0029 24.5595C21.7891 23.5724 20.568 22.4757 19.3689 21.2765C12.1302 14.0379 8.40123 5.98028 11.9328 2.44869C12.7371 1.64439 13.9216 1.45428 14.916 1.86374C14.5066 2.28783 14.5066 2.96051 14.9233 3.37728C15.3474 3.80137 16.0347 3.80137 16.4515 3.37728C16.8756 2.9532 16.8756 2.26589 16.4515 1.84912C16.4442 1.84181 16.4296 1.8345 16.4223 1.82719C16.4149 1.81987 16.4149 1.81987 16.4149 1.81256C15.0038 0.401387 12.7079 0.401387 11.2967 1.81256C7.41413 5.69512 10.4339 15.0323 18.0235 22.6219C20.5022 25.1006 23.171 27.0967 25.774 28.5152C25.0209 27.243 24.0923 25.9122 23.0029 24.5595Z" fill="white"/>
<path d="M18.0308 18.7905C15.5521 21.2692 13.556 23.938 12.1375 26.541C13.4171 25.7806 14.7479 24.852 16.0932 23.7625C17.0803 22.5488 18.1771 21.3277 19.3762 20.1286C26.6149 12.8899 34.6725 9.1609 38.2041 12.6925C39.0084 13.4968 39.1985 14.6813 38.789 15.6757C38.3649 15.2662 37.6922 15.2662 37.2755 15.683C36.8514 16.1071 36.8514 16.7944 37.2755 17.2112C37.6996 17.6353 38.3869 17.6353 38.8036 17.2112C38.8109 17.2039 38.8183 17.1892 38.8256 17.1819C38.8329 17.1746 38.8329 17.1746 38.8402 17.1746C40.2514 15.7634 40.2514 13.4675 38.8402 12.0564C34.9503 8.18112 25.6205 11.2009 18.0308 18.7905Z" fill="white"/>
<path d="M14.8868 34.4816C14.4627 34.9057 14.4627 35.593 14.8868 36.0098C15.2962 36.4192 15.9616 36.4266 16.3857 36.0317C16.7732 37.0115 16.5758 38.1741 15.7788 38.9637C14.7186 40.024 12.993 40.024 11.9255 38.9637C10.1634 37.2016 10.2072 34.3061 11.6038 30.95C11.092 31.1474 10.5948 31.3229 10.0976 31.4692C9.1909 34.8618 9.51262 37.8085 11.2967 39.5999C12.7079 41.011 15.0038 41.011 16.4149 39.5999C17.8261 38.1887 17.8261 35.8928 16.4149 34.4816C15.9982 34.0575 15.3109 34.0575 14.8868 34.4816Z" fill="white"/>
<path d="M25.0063 6.93081C25.4304 6.50673 25.4304 5.81942 25.0063 5.40265C24.5969 4.99319 23.9315 4.98588 23.5074 5.38071C23.1199 4.40093 23.3173 3.23836 24.1143 2.44869C25.1745 1.38848 26.9001 1.38848 27.9676 2.44869C29.7297 4.21083 29.6859 7.1063 28.2893 10.4624C28.8011 10.265 29.2983 10.0895 29.7955 9.94327C30.7022 6.5506 30.3805 3.60395 28.5964 1.81256C27.1852 0.401387 24.8893 0.401387 23.4782 1.81256C22.067 3.22374 22.067 5.51964 23.4782 6.93081C23.8949 7.3549 24.5822 7.3549 25.0063 6.93081Z" fill="white"/>
<path d="M23.7999 17.6499C22.8128 18.8636 21.716 20.0847 20.5169 21.2838C13.2782 28.5225 5.22061 32.2515 1.68901 28.7199C0.884717 27.9156 0.69461 26.7311 1.10407 25.7367C1.52815 26.1462 2.20084 26.1462 2.61761 25.7294C3.04169 25.3053 3.04169 24.618 2.61761 24.2013C2.19353 23.7772 1.50622 23.7772 1.08945 24.2013C1.08214 24.2086 1.07482 24.2232 1.06751 24.2305C1.0602 24.2378 1.0602 24.2378 1.05289 24.2378C-0.358287 25.649 -0.358287 27.9449 1.05289 29.3561C4.93545 33.2386 14.2726 30.2189 21.8622 22.6292C24.3409 20.1505 26.337 17.4817 27.7555 14.8787C26.4833 15.6318 25.1525 16.5604 23.7999 17.6499Z" fill="white"/>
<path d="M51.0875 30.621V30.1823L53.0909 29.166L58.9038 21.5983L53.2298 13.9209L51.5042 12.963V12.5243H58.3554V12.963L56.1618 13.9794V14.1183L60.5489 19.9019L65.0968 14.089V13.9794L63.013 12.963V12.5243H68.7674V12.963L67.0418 13.9794L61.4775 21.1376L67.539 29.1148L69.4547 30.1823V30.621H62.4646V30.1823L64.468 29.1952V29.0855L59.8104 22.8047L55.0431 29.0855V29.1952L57.2659 30.1823V30.621H51.0875Z" fill="white"/>
<path d="M77.7901 30.621V30.1823L79.9836 29.0855V14.0598L77.7901 12.963V12.5243H84.6412V12.963L82.4477 14.0598V20.5307H91.7702V14.0598L89.5767 12.963V12.5243H96.4278V12.963L94.2343 14.0598V29.0855L96.4278 30.1823V30.621H89.5767V30.1823L91.7702 29.0855V22.037H82.4477V29.0855L84.6412 30.1823V30.621H77.7901Z" fill="white"/>
<path d="M104.983 30.8989C103.776 30.8989 102.723 30.6137 101.817 30.0507C100.91 29.4877 100.208 28.7199 99.7036 27.7475C99.199 26.7823 98.9504 25.6856 98.9504 24.4572C98.9504 23.2361 99.199 22.1393 99.7036 21.1669C100.208 20.2017 100.91 19.434 101.817 18.8637C102.723 18.3006 103.776 18.0155 104.983 18.0155C106.189 18.0155 107.242 18.3006 108.149 18.8637C109.055 19.434 109.757 20.2017 110.262 21.1669C110.766 22.1393 111.015 23.2361 111.015 24.4572C111.015 25.6856 110.766 26.7823 110.262 27.7475C109.757 28.7199 109.055 29.4877 108.149 30.0507C107.249 30.6137 106.189 30.8989 104.983 30.8989ZM105.37 29.7143C106.101 29.7143 106.701 29.4877 107.176 29.027C107.651 28.5737 108.002 27.9815 108.214 27.2576C108.434 26.5337 108.543 25.7806 108.543 24.9982C108.543 24.0331 108.412 23.0972 108.149 22.2051C107.885 21.3131 107.461 20.5819 106.891 20.0116C106.313 19.4486 105.568 19.1634 104.654 19.1634C103.901 19.1634 103.294 19.3901 102.818 19.8507C102.343 20.3114 101.992 20.889 101.765 21.6056C101.539 22.3148 101.422 23.0752 101.422 23.8795C101.422 24.852 101.561 25.7806 101.831 26.6726C102.109 27.572 102.533 28.3032 103.118 28.8662C103.703 29.4365 104.456 29.7143 105.37 29.7143Z" fill="white"/>
<path d="M117.464 30.8989C116.66 30.8989 115.965 30.6576 115.38 30.1823C114.795 29.707 114.503 29.0417 114.503 28.1789V19.5729H112.258V19.4047L114.59 18.2787L116.535 15.2663H116.703V18.2787H120.323V19.5656H116.703V27.7109C116.703 28.1862 116.915 28.5371 117.332 28.7492C117.749 28.9685 118.246 29.0782 118.809 29.0782C119.153 29.0782 119.482 29.0636 119.782 29.0197C120.081 28.9832 120.345 28.9393 120.564 28.8808H120.644V29.1586C120.462 29.5827 120.103 29.9703 119.562 30.3358C119.021 30.7161 118.319 30.8989 117.464 30.8989Z" fill="white"/>
<path d="M127.934 30.8989C126.165 30.8989 124.761 30.3578 123.737 29.283C122.714 28.2081 122.202 26.7823 122.202 25.0056C122.202 23.6383 122.472 22.4245 123.014 21.3716C123.555 20.3187 124.264 19.4998 125.149 18.9075C126.033 18.3153 126.998 18.0155 128.044 18.0155C129.484 18.0155 130.625 18.52 131.459 19.5217C132.292 20.5307 132.709 21.9712 132.709 23.8503L132.57 23.9892H124.374C124.388 24.8301 124.556 25.6197 124.871 26.3582C125.178 27.0967 125.682 27.6963 126.362 28.1569C127.05 28.6176 127.964 28.8442 129.119 28.8442C130.121 28.8442 131.305 28.4787 132.658 27.7475H132.738V28.018C132.314 28.8077 131.693 29.4804 130.859 30.0434C130.026 30.6137 129.046 30.8989 127.934 30.8989ZM127.605 19.2146C126.728 19.2146 126.011 19.5217 125.456 20.1359C124.9 20.7501 124.556 21.6129 124.425 22.7243H130.618C130.413 21.4813 130.062 20.5892 129.565 20.0409C129.06 19.4925 128.41 19.2146 127.605 19.2146Z" fill="white"/>
<path d="M134.676 30.621V30.1823L136.401 29.3049V13.1824L134.756 11.7566V11.5665L138.427 10.0603H138.588V29.3049L140.313 30.1823V30.621H134.676Z" fill="white"/>
</svg>
