<svg width="200" height="174" viewBox="0 0 200 174" fill="none" xmlns="http://www.w3.org/2000/svg">
<circle cx="105.039" cy="86.2803" r="66.7677" fill="#E7E7E7"/>
<rect x="90.0786" y="85.622" width="51.8488" height="72.4011" rx="7.5" transform="rotate(2.5 90.0786 85.622)" fill="#D1D1D1" stroke="#BCBCBC"/>
<rect x="60.0191" y="81.7645" width="53.8488" height="74.4011" rx="8.5" transform="rotate(-7.5 60.0191 81.7645)" fill="#F6F6F6" stroke="#BCBCBC"/>
<mask id="path-4-inside-1_149_11049" fill="white">
<path d="M61.6243 90.1265C61.0476 85.746 64.1312 81.7274 68.5117 81.1507L105.045 76.341C109.426 75.7643 113.444 78.8479 114.021 83.2284L115.18 92.0346L62.7837 98.9328L61.6243 90.1265Z"/>
</mask>
<path d="M61.6243 90.1265C61.0476 85.746 64.1312 81.7274 68.5117 81.1507L105.045 76.341C109.426 75.7643 113.444 78.8479 114.021 83.2284L115.18 92.0346L62.7837 98.9328L61.6243 90.1265Z" fill="#D1D1D1"/>
<path d="M60.5801 82.1949L112.977 75.2968L60.5801 82.1949ZM115.311 93.0261L62.9142 99.9242L62.6532 97.9413L115.05 91.0432L115.311 93.0261ZM62.7837 98.9328L60.5801 82.1949L62.7837 98.9328ZM112.977 75.2968L115.18 92.0346L112.977 75.2968Z" fill="#BCBCBC" mask="url(#path-4-inside-1_149_11049)"/>
<rect x="123.941" y="78.0595" width="1.20203" height="6.34011" rx="0.601017" transform="rotate(82.5 123.941 78.0595)" fill="#888888" stroke="#BCBCBC"/>
<rect x="104.823" y="65.7693" width="1.20203" height="6.34011" rx="0.601017" transform="rotate(-7.5 104.823 65.7693)" fill="#888888" stroke="#BCBCBC"/>
<rect x="117.257" y="68.0432" width="1.20203" height="6.34011" rx="0.601017" transform="rotate(37.5 117.257 68.0432)" fill="#888888" stroke="#BCBCBC"/>
<rect x="68.2611" y="106.311" width="42.5726" height="2.93604" rx="1.46802" transform="rotate(-7.5 68.2611 106.311)" fill="#BCBCBC"/>
<rect x="70.1772" y="120.866" width="42.5726" height="2.93604" rx="1.46802" transform="rotate(-7.5 70.1772 120.866)" fill="#BCBCBC"/>
<rect x="72.0935" y="135.421" width="42.5726" height="2.93604" rx="1.46802" transform="rotate(-7.5 72.0935 135.421)" fill="#BCBCBC"/>
<rect x="69.0276" y="112.133" width="15.4142" height="2.93604" rx="1.46802" transform="rotate(-7.5 69.0276 112.133)" fill="#888888"/>
<rect x="70.9437" y="126.688" width="15.4142" height="2.93604" rx="1.46802" transform="rotate(-7.5 70.9437 126.688)" fill="#888888"/>
<rect x="72.8599" y="141.242" width="15.4142" height="2.93604" rx="1.46802" transform="rotate(-7.5 72.8599 141.242)" fill="#888888"/>
<path d="M94.0939 28.6193C94.0939 30.7596 92.3589 32.4946 90.2186 32.4946C88.0783 32.4946 86.3433 30.7596 86.3433 28.6193C86.3433 26.4791 88.0783 24.7441 90.2186 24.7441C92.3589 24.7441 94.0939 26.4791 94.0939 28.6193Z" fill="#888888" stroke="#BCBCBC" stroke-width="1.53302"/>
<path d="M150.869 30.7029C150.869 31.4305 150.279 32.0204 149.551 32.0204C148.824 32.0204 148.234 31.4305 148.234 30.7029C148.234 29.9753 148.824 29.3854 149.551 29.3854C150.279 29.3854 150.869 29.9753 150.869 30.7029Z" fill="#888888" stroke="#BCBCBC" stroke-width="1.53302"/>
<path d="M139.817 63.4917C139.817 64.2193 139.227 64.8092 138.5 64.8092C137.772 64.8092 137.182 64.2193 137.182 63.4917C137.182 62.7641 137.772 62.1742 138.5 62.1742C139.227 62.1742 139.817 62.7641 139.817 63.4917Z" fill="#888888" stroke="#BCBCBC" stroke-width="1.53302"/>
<circle cx="168.744" cy="85.7042" r="1.94269" fill="#888888" stroke="#BCBCBC" stroke-width="1.53302"/>
<circle cx="41.868" cy="21.268" r="1.94269" fill="#888888" stroke="#BCBCBC" stroke-width="1.53302"/>
<path d="M124.301 9.19442L126.794 6.70079L128.597 8.50366L126.104 10.9973L128.922 13.8156L127.022 15.7151L124.204 12.8969L121.703 15.3974L119.901 13.5945L122.401 11.094L119.7 8.39314L121.6 6.49356L124.301 9.19442Z" fill="#BCBCBC"/>
<path d="M59.0043 34.1451L61.0117 32.1377L62.4631 33.589L60.4557 35.5965L62.7245 37.8653L61.1952 39.3945L58.9264 37.1257L56.9134 39.1387L55.4621 37.6873L57.4751 35.6743L55.3008 33.5001L56.83 31.9708L59.0043 34.1451Z" fill="#BCBCBC"/>
<path d="M32.143 56.2783L33.4223 54.999L34.3472 55.9239L33.0679 57.2032L34.5138 58.649L33.5392 59.6236L32.0934 58.1777L30.8105 59.4606L29.8856 58.5356L31.1684 57.2528L29.7828 55.8672L30.7574 54.8927L32.143 56.2783Z" fill="#BCBCBC"/>
<path d="M168.85 55.6556L170.129 54.3763L171.054 55.3012L169.775 56.5805L171.221 58.0264L170.246 59.0009L168.8 57.555L167.518 58.8379L166.593 57.913L167.876 56.6301L166.49 55.2445L167.464 54.27L168.85 55.6556Z" fill="#BCBCBC"/>
</svg>
